Roots (1977)  (Disc 1-6) 

 
Roots (1977)
Verenigde Staten
Drama
573 minuten (tv-serie, 8 delen)

geregisseerd door Marvin J. Chomsky, John Erman, David Greene en Gilbert Moses
met LeVar Burton, Lorne Greene en Ben Vereen

Kunta Kinte wordt ontvoerd uit zijn dorpje in Afrika, verkocht aan slavenhandelaren en naar Amerika verscheept. Hij tracht te ontsnappen, maar het is tevergeefs. Op de plantage waar hij werkt volgen we zijn leven, liefde, vriendschap en ontberingen, die beinvloed worden door onder meer revoluties, de Burgeroorlog en slaven opstanden

Egnlish


A saga of African-American life, based on Alex Haley's family history. Kunta Kinte is abducted from his African village, sold into slavery, and taken to America. He makes several escape attempts until he is finally caught and maimed. He marries Bell, his plantation's cook, and they have a daughter, Kizzy, who is eventually sold away from them. Kizzy has a son by her new master, and the boy grows up to become Chicken George, a legendary cock fighter who leads his family into freedom. Throughout the series, the family observes notable events in U.S. history, such as the Revolutionary and Civil Wars, slave uprisings, and emancipation.



Spotinformatie 
Categorie : Beeld 
Formaat : DVD5 
Bron : Retail
Audio : English, French, German, Spanish,  
Subs : Dutch, English, French, German, Swedish, Norwegisn, Danish, Polish, Turkish, 
Menu : Yes
Extra : Yes

Format                           : MPEG-PS
File size                        : 1 024 MiB
Duration                         : 24mn 19s
Overall bit rate                 : 5 884 Kbps
Writing library                  : encoded by TMPGEnc (ver. 2.524.63.181)

Video
ID                               : 224 (0xE0)
Format                           : MPEG Video
Format version                   : Version 2
Format profile                   : Main@Main
Format settings, Matrix          : Default
Duration                         : 24mn 19s
Bit rate mode                    : Variable
Bit rate                         : 4 690 Kbps
Nominal bit rate                 : 7 250 Kbps
Width                            : 720 pixels
Height                           : 576 pixels
Display aspect ratio             : 4/3
Frame rate                       : 25.000 fps
Standard                         : PAL
Colorimetry                      : 4:2:0
Bits/(Pixel*Frame)               : 0.452
Stream size                      : 816 MiB (80%)
Writing library                  : TMPGEnc 2.524.63.181

Audio #1
ID                               : 128 (0x80)
Format                           : AC-3
Format/Info                      : Audio Coding 3
Duration                         : 24mn 19s
Bit rate mode                    : Constant
Bit rate                         : 192 Kbps
Channel(s)                       : 1 channel
Channel positions                : C
Sampling rate                    : 48.0 KHz
Video delay                      : -228ms
Stream size                      : 33.4 MiB (3%)

 
Genre : Drama
TV Shows/Series
ROOTS 1
ROOTS 2
ROOTS 3
ROOTS 4
ROOTS 5
ROOTS BONUS 6



Weblink :  http://www.moviemeter.nl/forum/12/6841 
Weblink :  http://www.imdb.com/title/tt0075572 

 
*****************************************

Brought to you by 
Pioen

2Lions Team

meer zien??
Kom dan eens kijken op ons forum 




2Lions the site to be for all your Dutch MOVIES and more

******************************************


DON T HIT AND RUN Niet gelijk afhaken als de FILM binnen is blijf seeden. 

Don`t quit after you finished the download, but keep seeding


There are fake torrents from uploaders who use our team name.
Those are not ours, or members from our team.
We 2Lions-Team are not responsible for the fake posts on our name

Wij 2Lions-Team zijn niet verantwoordelijk voor die zieke FAKE posten die op onze naam worden gedaan  
 
